<?xml version="1.0" ?><svg viewBox="0 0 32 32" xmlns="http://www.w3.org/2000/svg"><title/><g data-name="Layer 34" id="Layer_34"><path d="M24,2H8A5,5,0,0,0,3,7V20a5,5,0,0,0,5,5h3.44l3.79,4.63a1,1,0,0,0,1.54,0L20.56,25H24a5,5,0,0,0,5-5V7A5,5,0,0,0,24,2Zm3,18a3,3,0,0,1-3,3H20.09a1,1,0,0,0-.77.37L16,27.42l-3.32-4.05a1,1,0,0,0-.77-.37H8a3,3,0,0,1-3-3V7A3,3,0,0,1,8,4H24a3,3,0,0,1,3,3Z"/><path d="M19.2,17.4a4,4,0,0,1-6.4,0,1,1,0,1,0-1.6,1.2,6,6,0,0,0,9.6,0,1,1,0,0,0-1.6-1.2Z"/><path d="M12.5,12a1,1,0,0,0,0,2H13v.5a1,1,0,0,0,2,0V14h2v.5a1,1,0,0,0,2,0V14h.5a1,1,0,0,0,0-2H19V10h.5a1,1,0,0,0,0-2H19V7.5a1,1,0,0,0-2,0V8H15V7.5a1,1,0,0,0-2,0V8h-.5a1,1,0,0,0,0,2H13v2ZM15,10h2v2H15Z"/></g></svg>